<?xml version="1.0" encoding="utf-8"?>
<!-- Generator: Adobe Illustrator 16.0.4, SVG Export Plug-In . SVG Version: 6.00 Build 0)  -->
<!DOCTYPE svg PUBLIC "-//W3C//DTD SVG 1.1//EN" "http://www.w3.org/Graphics/SVG/1.1/DTD/svg11.dtd">
<svg version="1.1" id="Calque_1" xmlns="http://www.w3.org/2000/svg" xmlns:xlink="http://www.w3.org/1999/xlink" x="0px" y="0px"
	 width="50px" height="27.5px" viewBox="0 0 50 27.5" enable-background="new 0 0 50 27.5" xml:space="preserve">
<g>
	<path fill="#999999" d="M5.169,2.607V1.314h1.034V2.09H5.428v0.517H5.169z M5.945,1.832V1.573H5.428v0.258H5.945z"/>
	<path fill="#999999" d="M6.462,1.573V1.314H6.72v0.259H6.462z M6.462,2.607V1.832H6.72v0.775H6.462z"/>
	<path fill="#999999" d="M6.979,1.573V1.314h0.258v0.259H6.979z M6.979,2.607V2.349h0.258v0.258H6.979z M7.237,1.832V1.573h0.259
		v0.258H7.237z M7.237,2.349V2.09h0.259v0.259H7.237z M7.496,2.09V1.832h0.258V2.09H7.496z M7.754,1.832V1.573h0.258v0.258H7.754z
		 M7.754,2.349V2.09h0.258v0.259H7.754z M8.012,1.573V1.314h0.259v0.259H8.012z M8.012,2.607V2.349h0.259v0.258H8.012z"/>
	<path fill="#999999" d="M8.53,2.607V1.314h1.034V2.09H8.788v0.259h0.775v0.258H8.53z M9.305,1.832V1.573H8.788v0.258H9.305z"/>
	<path fill="#999999" d="M9.822,2.607V1.521h0.181v0.905h0.543v0.181H9.822z"/>
	<path fill="#F0047F" d="M11.244,2.607V1.314h0.258v0.517h0.517V1.314h0.258v1.292h-0.258V2.09h-0.517v0.517H11.244z M11.502,1.314
		V1.056h0.517v0.258H11.502z"/>
	<path fill="#F0047F" d="M12.536,2.607V1.314h1.034v0.259h-0.775v1.034H12.536z"/>
	<path fill="#F0047F" d="M13.829,2.607V1.314h0.258v0.517h0.775V2.09h-0.775v0.259h0.775v0.258H13.829z"/>
</g>
<g>
	<path d="M2.876,2.381V1.9h0.962v0.481H2.876z M2.876,5.269V2.863h1.925v1.444H3.357v0.481h1.444v0.481H2.876z M4.32,3.826V3.344
		H3.357v0.481H4.32z M3.839,1.9V1.419h0.962V1.9H3.839z"/>
	<path d="M5.283,5.269V3.826h1.443V2.863h0.481v2.406H5.283z M6.726,4.788V4.307H5.764v0.481H6.726z"/>
	<path d="M7.689,3.344V2.863H8.17v0.481H7.689z M7.689,5.269V3.826H8.17v1.443H7.689z"/>
	<path d="M8.651,5.269V2.863h0.481v0.963h1.444v0.481H9.132v0.481h1.444v0.481H8.651z"/>
	<path d="M11.058,4.788V3.344h0.481v1.444H11.058z M11.539,3.344V2.863h0.962v0.481H11.539z M11.539,5.269V4.788h0.962v0.481H11.539
		z M12.501,4.788V3.344h0.481v1.444H12.501z"/>
	<path d="M13.464,5.269V3.248h1.01v0.337h-0.673v0.337h0.673v0.337h-0.673v1.01H13.464z M14.475,3.922V3.584h0.337v0.337H14.475z
		 M14.475,5.269v-1.01h0.337v1.01H14.475z"/>
</g>
</svg>
